<svg width="148" height="56" viewBox="0 0 148 56" fill="none" xmlns="http://www.w3.org/2000/svg">
<path d="M17.4537 23.2324L17.421 24.7034C18.4342 24.8668 19.5455 25.586 19.5455 29.1162V38.6284C19.5455 42.3875 16.898 43.9239 14.1198 43.9239C11.1782 43.9239 8.66146 42.3875 8.66146 38.6284V27.0896C8.66146 25.2918 9.77274 24.8014 10.786 24.7034L10.6552 23.2324H0.130739L0 24.7034C1.01323 24.8014 2.12451 25.2918 2.12451 27.0896V37.4517C2.12451 43.0413 5.06614 46.7023 12.4529 46.7023C19.5455 46.7023 22.7813 43.0413 22.7813 37.4517V28.7894C22.7813 25.684 23.8926 24.8668 24.9058 24.7034V23.2324H17.4537Z" fill="#152127"/>
<path d="M41.2402 39.7725C40.6846 43.3028 37.4161 43.7931 33.3632 43.7931H32.8403L42.5803 29.5085V27.4818H26.6302L26.2053 33.2349H27.9702C28.3951 30.2276 31.3041 29.8354 33.8535 29.8027H35.5531L26.0418 43.7277V46.114H42.2535L43.0052 39.7725H41.2402Z" fill="#152127"/>
<path d="M53.8606 34.7044C53.8606 29.8339 56.4754 24.898 60.7898 24.898C62.6201 24.898 63.6661 26.1728 63.6661 28.3629C63.6661 30.0954 64.9734 30.978 66.3135 30.978C67.6863 30.978 69.059 30.0627 69.059 28.2322C69.059 26.7285 68.2419 25.6498 66.9999 24.6692C65.1369 23.1982 62.2933 22.6425 59.1229 22.6425C52.2591 22.6425 46.7354 28.036 46.7354 34.7697C46.7354 41.4708 52.2591 46.7008 59.1229 46.7008C63.3719 46.7008 67.4902 45.0664 69.9742 41.863L68.4054 40.2613C66.7711 42.0591 64.091 42.9744 61.0186 42.7783C57.8482 42.5495 53.8606 39.9998 53.8606 34.7044Z" fill="#767779"/>
<path d="M82.3937 44.6415V46.1124H93.0489L92.9508 44.6415C91.9376 44.4781 90.8263 43.7589 90.8263 40.2286V33.8545C90.8263 28.5264 87.5905 26.892 84.747 26.892C82.7205 26.892 80.498 27.8399 79.7135 29.4743V20.9428C78.2427 20.2236 73.0131 20.3544 71.1174 22.8387C72.098 23.427 73.4053 23.8193 73.4053 27.2842V40.2286C73.4053 43.7589 72.2941 44.4781 71.2808 44.6415L71.1828 46.1124H81.838V44.6415C80.8248 44.4781 79.7135 43.7589 79.7135 40.2286V35.8811C79.7135 32.3182 80.6614 29.7031 82.459 29.7031C83.1127 29.7031 84.5182 30.3569 84.5182 33.8218V40.2286C84.5182 43.7589 83.4069 44.4781 82.3937 44.6415Z" fill="#767779"/>
<path d="M111.464 41.4054C110.124 42.909 107.901 43.6609 106.169 43.5301C103.358 43.334 100.678 41.0458 100.58 37.9732C103.619 38.5289 106.136 38.2347 108.032 37.6463C110.745 36.7964 112.281 35.3908 112.575 33.2661C113.065 29.6704 109.437 26.8266 103.783 26.8266C98.1283 26.8266 93.5524 31.3048 93.5524 36.8618C93.5524 42.4187 98.1283 46.897 103.783 46.897C107.313 46.897 110.712 45.3933 112.771 42.7456L111.464 41.4054ZM105.319 29.4416C106.986 29.2782 108.62 30.7491 108.032 32.7758C107.476 34.6717 105.515 36.6003 100.776 35.7177C101.201 32.5797 102.443 29.7031 105.319 29.4416Z" fill="#767779"/>
<path d="M121.421 44.2492C119.82 44.2492 118.186 43.5628 118.186 42.288C118.186 41.6015 119.231 41.2093 119.231 40.3267C119.231 39.2807 118.186 38.3654 116.715 38.3654C114.525 38.3654 113.577 40.1633 113.577 41.3073C113.577 44.5434 117.238 46.472 121.912 46.472C127.828 46.472 130.377 43.1378 130.377 40.3921C130.377 38.725 129.527 37.3194 127.729 36.11C123.709 33.3315 119.951 32.1874 119.951 30.7164C119.951 29.6377 121.193 29.0494 122.565 29.0494C124.003 29.0494 125.409 29.6051 125.245 30.8145C124.788 34.2794 130.246 34.1814 129.625 30.553C129.266 28.5917 126.618 27.1535 123.023 27.1535C119.133 27.1535 115.375 28.461 114.558 31.4356C113.969 33.3642 115.309 35.1293 117.499 36.5349C120.572 38.4635 124.624 40.0325 124.624 41.6015C124.624 43.1378 123.448 44.2492 121.421 44.2492Z" fill="#767779"/>
<path d="M139.044 44.2492C137.443 44.2492 135.808 43.5628 135.808 42.288C135.808 41.6015 136.854 41.2093 136.854 40.3267C136.854 39.2807 135.808 38.3654 134.338 38.3654C132.148 38.3654 131.2 40.1633 131.2 41.3073C131.2 44.5434 134.861 46.472 139.535 46.472C145.45 46.472 148 43.1378 148 40.3921C148 38.725 147.15 37.3194 145.352 36.11C141.332 33.3315 137.573 32.1874 137.573 30.7164C137.573 29.6377 138.815 29.0494 140.188 29.0494C141.626 29.0494 143.032 29.6051 142.868 30.8145C142.411 34.2794 147.869 34.1814 147.248 30.553C146.889 28.5917 144.241 27.1535 140.646 27.1535C136.756 27.1535 132.998 28.461 132.18 31.4356C131.592 33.3642 132.932 35.1293 135.122 36.5349C138.194 38.4635 142.247 40.0325 142.247 41.6015C142.247 43.1378 141.071 44.2492 139.044 44.2492Z" fill="#767779"/>
<g filter="url(#filter0_i_2822_396132)">
<path d="M41.105 46.1891C40.2262 46.1891 39.6013 45.3195 39.8677 44.4675L41.5454 39.1029C42.077 37.4032 43.0696 35.8909 44.4089 34.7401C44.4702 34.6651 44.5272 34.5839 44.5809 34.4981C44.7153 34.2845 44.7348 33.8379 44.5999 33.6048C44.1959 32.9251 43.7343 32.2649 43.2343 31.624C42.9989 31.339 42.7499 31.068 42.4985 30.7973C42.2356 30.5146 41.9701 30.2321 41.7144 29.9345C41.2144 29.3518 41.2723 29.1382 41.7339 28.5362C41.9841 28.206 42.1569 27.7205 42.1569 27.3127C42.1764 25.9339 41.6569 24.6522 41.1185 23.4093C40.8682 22.8267 41.4646 21.8557 42.0995 21.8557H44.0036L44.0247 21.8168C44.0441 21.7825 44.067 21.7414 44.0805 21.7003C42.7339 20.671 41.9456 19.3505 42.1185 17.6027C42.2148 16.6705 42.4841 15.7966 43.0226 14.9227C43.8497 15.6606 44.6194 16.3597 45.3886 17.0589C45.5674 17.2282 45.701 17.286 45.8303 17.2437C45.9237 17.2132 46.015 17.1307 46.1194 17.0006C46.3506 16.7288 46.3121 16.5928 46.0619 16.3792C45.496 15.8811 44.952 15.372 44.3971 14.8685C44.2162 14.7045 44.034 14.5411 43.8497 14.3789C43.561 14.1265 43.542 13.9323 43.7922 13.6604C44.2343 13.1555 44.6384 12.6117 45.0999 12.1067C45.2923 11.8931 45.3886 11.7378 45.2732 11.427C45.0425 10.8251 45.2348 10.2813 45.7733 9.89287C46.3312 9.50445 47.1583 9.52385 47.7162 9.93168C48.1972 10.3007 48.3701 10.8445 48.1393 11.4465C48.0239 11.7378 48.1203 11.8737 48.3126 12.0679C49.4475 13.2914 50.4475 14.5926 51.0054 16.2044C51.7172 18.2435 51.2362 20.0108 49.6203 21.4479C49.5751 21.4844 49.5341 21.5252 49.4978 21.5803C49.4563 21.6426 49.4204 21.723 49.3896 21.8362H50.9285C51.6212 21.8362 52.1403 22.1664 52.3905 22.8267C52.4484 22.9626 52.3715 23.1568 52.3136 23.3122C51.9674 24.3997 51.5633 25.4872 51.2941 26.5942C51.1018 27.3904 51.1593 28.1866 51.9095 28.7887C52.2941 29.0994 52.0059 29.5266 51.7751 29.8179C51.568 30.0789 51.3444 30.3175 51.1221 30.5548C50.931 30.7588 50.7408 30.9618 50.5629 31.1773C50.4496 31.3156 50.3346 31.453 50.2193 31.5906C49.7683 32.1296 49.3152 32.6713 48.9475 33.2747C48.5852 33.8432 48.6157 34.3646 48.98 34.7401C50.31 35.8912 51.2958 37.399 51.8253 39.0919L53.5064 44.4675C53.7728 45.3195 53.1479 46.1891 52.2691 46.1891H41.105Z" fill="#1C92E0"/>
</g>
<path fill-rule="evenodd" clip-rule="evenodd" d="M51.821 29.8928C51.6134 30.1544 51.3894 30.3935 51.1665 30.6313L51.1628 30.6353C50.972 30.8392 50.782 31.0421 50.6042 31.2574C50.4905 31.3962 50.3751 31.5341 50.2593 31.6723C49.8066 32.2133 49.3517 32.757 48.9826 33.3627C48.619 33.9334 48.6496 34.4568 49.0153 34.8337C50.3504 35.9892 51.3399 37.5027 51.8714 39.2021L53.5589 44.5981C53.8264 45.4533 53.199 46.3262 52.3169 46.3262H41.1104C40.2282 46.3262 39.6009 45.4533 39.8684 44.5981L41.5524 39.2131C42.086 37.507 43.0824 35.9889 44.4268 34.8337C44.4883 34.7584 44.5456 34.677 44.5995 34.5908C44.7344 34.3764 44.7539 33.9281 44.6186 33.6941C44.213 33.0118 43.7497 32.3491 43.2478 31.7057C43.0114 31.4197 42.7615 31.1476 42.5091 30.8759C42.4815 30.8462 42.4538 30.8165 42.4261 30.7867C42.1895 30.5325 41.9519 30.2773 41.7221 30.0098C41.2202 29.4249 41.2783 29.2105 41.7416 28.6062C41.9928 28.2748 42.1663 27.7874 42.1663 27.3781C42.1858 25.994 41.6644 24.7074 41.1238 23.4598C40.8995 22.9375 41.3531 22.1042 41.9066 21.932C41.9728 21.9114 42.0405 21.9003 42.1086 21.9003H44.0199L44.0411 21.8613C44.0607 21.8268 44.0836 21.7856 44.0971 21.7443C44.0712 21.7245 44.0455 21.7045 44.0199 21.6845C43.4801 21.2605 43.0338 20.788 42.7082 20.2578C42.247 19.5067 42.0279 18.6398 42.1277 17.6311C42.1668 17.2524 42.2344 16.8833 42.3368 16.5198C42.4284 16.1946 42.548 15.874 42.7 15.5552C42.7979 15.3499 42.9092 15.1454 43.0352 14.9409C43.1008 14.9995 43.1661 15.0578 43.2311 15.1159C43.2319 15.1166 43.2327 15.1173 43.2335 15.118C43.4143 15.2798 43.5926 15.4399 43.769 15.5986C43.7689 15.5985 43.7691 15.5987 43.769 15.5986C43.9421 15.7544 44.1135 15.9092 44.2834 16.0628C44.4186 16.1851 44.5529 16.3068 44.6867 16.4281C44.7101 16.3196 44.7437 16.2282 44.7761 16.1576C44.81 16.084 44.8428 16.0322 44.8619 16.0043C44.8629 16.0028 44.8639 16.0014 44.8648 16.0001C44.8677 15.9959 44.8704 15.992 44.8729 15.9886C44.879 15.9823 44.8868 15.9746 44.8962 15.9657C44.905 15.9574 44.9153 15.9481 44.9269 15.9382C44.9851 15.8883 45.1172 15.7873 45.3226 15.7165C45.2054 15.6094 45.0884 15.5022 44.9714 15.395C44.7863 15.2253 44.6012 15.0556 44.4149 14.8866C44.2333 14.7219 44.0505 14.5579 43.8655 14.3951C43.789 14.3281 43.7313 14.2653 43.6925 14.204C43.5845 14.0332 43.623 13.8746 43.8078 13.6738C43.8479 13.628 43.8876 13.5819 43.9272 13.5356C44.0797 13.3567 44.2287 13.1739 44.3782 12.9905C44.6188 12.6953 44.8605 12.3987 45.1205 12.1143C45.3135 11.8998 45.4103 11.7439 45.2944 11.432C45.0628 10.8277 45.2558 10.2819 45.7964 9.89197C46.3564 9.50207 47.1867 9.52155 47.7467 9.93092C48.2295 10.3013 48.4031 10.8472 48.1714 11.4515C48.0556 11.7439 48.1523 11.8804 48.3454 12.0753C49.4845 13.3034 50.4884 14.6095 51.0484 16.2275C51.5681 17.7163 51.4543 19.0607 50.7296 20.2382C50.4579 20.6796 50.1003 21.0976 49.6581 21.4909C49.6127 21.5275 49.5715 21.5685 49.535 21.6239C49.4935 21.6863 49.4574 21.7671 49.4264 21.8808H50.9712C51.1616 21.8808 51.339 21.9056 51.5014 21.9553C51.9317 22.0871 52.2564 22.3937 52.4387 22.875C52.4947 23.0062 52.4254 23.1916 52.3683 23.3443C52.366 23.3503 52.3638 23.3564 52.3615 23.3623C52.2605 23.6796 52.1546 23.997 52.0485 24.3147C51.7897 25.0903 51.5299 25.8686 51.3382 26.6568C51.1451 27.4561 51.2028 28.2553 51.9559 28.8596C52.342 29.1716 52.0527 29.6004 51.821 29.8928ZM52.9343 27.0436C52.8727 27.2996 52.8846 27.4267 52.8945 27.4707C52.8982 27.4872 52.9017 27.4935 52.9052 27.4991C52.9091 27.5052 52.9275 27.5334 52.9838 27.5785L52.988 27.5819C53.3179 27.8485 53.5928 28.2199 53.7176 28.6898C53.8376 29.1417 53.7826 29.5477 53.6974 29.8413C53.5471 30.3591 53.2298 30.7595 53.1127 30.9073L53.1075 30.9138C52.8576 31.2288 52.5941 31.5099 52.381 31.7373L52.3643 31.7551C52.3642 31.7553 52.3645 31.755 52.3643 31.7551C52.1675 31.9653 52.0123 32.1318 51.8723 32.3011C51.7531 32.4466 51.6335 32.5896 51.5183 32.727C51.1256 33.1963 50.7985 33.5908 50.529 33.9927C51.875 35.2905 52.8766 36.9138 53.4388 38.7118L55.1264 44.1078C55.7129 45.9832 54.3463 47.9688 52.3169 47.9688H41.1104C39.081 47.9688 37.7144 45.9832 38.3009 44.1078L39.985 38.7228C40.5457 36.9299 41.5439 35.3114 42.8853 34.017C42.6051 33.5863 42.2976 33.1589 41.9674 32.7347C41.7684 32.495 41.552 32.2588 41.3064 31.9944M50.3452 34.2851C50.3452 34.2851 50.3454 34.2845 50.346 34.2832L50.3452 34.2851ZM52.9343 27.0436C53.1091 26.3256 53.3351 25.6489 53.5835 24.9048C53.69 24.586 53.8006 24.2549 53.913 23.9028C53.9415 23.8273 54.0047 23.6547 54.0456 23.474C54.0883 23.285 54.1787 22.805 53.9668 22.2727C53.7354 21.6728 53.3462 21.1384 52.7825 20.7626C52.6661 20.685 52.5468 20.6172 52.4254 20.5584C52.5878 20.2236 52.7193 19.8736 52.8165 19.5083C53.149 18.2591 53.0453 16.9658 52.5997 15.6882C51.9929 13.9362 50.9657 12.5372 49.8883 11.3303C49.9411 10.9429 49.9192 10.5426 49.8046 10.1467C49.6191 9.50596 49.2253 8.99516 48.7464 8.62771L48.7312 8.61611L48.7159 8.60486C47.6106 7.79694 46.0142 7.73899 44.858 8.54392L44.8468 8.55178L44.8356 8.55981C44.3466 8.91252 43.915 9.41013 43.6977 10.0623C43.5522 10.4991 43.5239 10.9428 43.5881 11.3694C43.445 11.5372 43.3101 11.7015 43.1845 11.8554C43.1574 11.8886 43.1308 11.9213 43.1046 11.9534C42.9616 12.1288 42.8313 12.2887 42.7013 12.4419L42.6655 12.41L42.508 12.6656C42.3912 12.8056 42.2495 13.0044 42.1438 13.2567L41.637 14.0792C40.9568 15.1831 40.6141 16.3007 40.494 17.4622L40.4933 17.4694C40.3786 18.6287 40.5778 19.649 40.9958 20.538C40.4714 20.8177 40.1008 21.2533 39.8903 21.5903C39.5487 22.1369 39.1895 23.1178 39.6148 24.108L39.6169 24.1128C40.1676 25.3839 40.538 26.3681 40.5241 27.3549L40.5239 27.3665V27.3734C40.5237 27.376 40.5229 27.3833 40.5207 27.3953C40.5165 27.4175 40.5091 27.4469 40.4974 27.4805C40.4857 27.5139 40.4721 27.545 40.4585 27.5711C40.4461 27.5947 40.4368 27.6083 40.4336 27.6128C40.4266 27.6219 40.4191 27.6316 40.4112 27.6418C40.2183 27.8914 39.7659 28.4766 39.7294 29.2366C39.6861 30.1393 40.2185 30.7797 40.4758 31.0795C40.7284 31.3735 40.9896 31.6541 41.2237 31.9055C41.2515 31.9354 41.2794 31.9654 41.3064 31.9944M46.0861 16.403C46.3373 16.6174 46.3759 16.7539 46.1438 17.0268C46.039 17.1574 45.9474 17.2401 45.8536 17.2707C45.7368 17.309 45.6166 17.2659 45.463 17.1331C45.4594 17.1299 45.4557 17.1268 45.4521 17.1236C45.4384 17.1115 45.4245 17.0987 45.4103 17.0853" fill="white"/>
<g filter="url(#filter1_di_2822_396132)">
<path d="M41.11 46.3282C40.2278 46.3282 39.6005 45.4553 39.868 44.6001L41.552 39.215C42.0856 37.5089 43.082 35.9909 44.4264 34.8357C44.4879 34.7603 44.5452 34.6789 44.5991 34.5928C44.734 34.3784 44.7535 33.93 44.6182 33.6961C44.2126 33.0138 43.7493 32.351 43.2474 31.7077C43.011 31.4217 42.7611 31.1496 42.5087 30.8779C42.2448 30.5941 41.9784 30.3105 41.7217 30.0117C41.2198 29.4269 41.2779 29.2125 41.7412 28.6082C41.9924 28.2767 42.1659 27.7894 42.1659 27.38C42.1854 25.996 41.664 24.7094 41.1234 23.4617C40.8723 22.8769 41.4709 21.9022 42.1082 21.9022H44.0195L44.0407 21.8632C44.0603 21.8288 44.0832 21.7875 44.0967 21.7463C42.745 20.7131 41.9537 19.3875 42.1273 17.6331C42.224 16.6973 42.4943 15.8201 43.0348 14.9429C43.8651 15.6836 44.6377 16.3854 45.4099 17.0872C45.5893 17.2572 45.7234 17.3152 45.8532 17.2727C45.947 17.2421 46.0386 17.1593 46.1434 17.0287C46.3755 16.7558 46.3369 16.6194 46.0857 16.4049C45.5176 15.905 44.9716 15.3939 44.4145 14.8885C44.2329 14.7239 44.0501 14.5599 43.8651 14.397C43.5753 14.1436 43.5562 13.9487 43.8074 13.6758C44.2512 13.1689 44.6568 12.6231 45.1201 12.1162C45.3131 11.9018 45.4099 11.7459 45.294 11.4339C45.0624 10.8297 45.2554 10.2838 45.796 9.89393C46.356 9.50403 47.1863 9.52351 47.7463 9.93289C48.2291 10.3033 48.4027 10.8491 48.171 11.4535C48.0552 11.7459 48.1519 11.8823 48.345 12.0773C49.4841 13.3054 50.488 14.6115 51.048 16.2295C51.7625 18.2764 51.2797 20.0503 49.6577 21.4929C49.6123 21.5295 49.5711 21.5705 49.5346 21.6258C49.4931 21.6883 49.457 21.7691 49.426 21.8827H50.9708C51.6662 21.8827 52.1872 22.2141 52.4383 22.8769C52.4965 23.0134 52.4193 23.2083 52.3611 23.3643C52.0137 24.456 51.608 25.5476 51.3378 26.6588C51.1447 27.458 51.2024 28.2573 51.9555 28.8616C52.3416 29.1735 52.0523 29.6024 51.8206 29.8948C51.6127 30.1568 51.3883 30.3963 51.1651 30.6344C50.9733 30.8392 50.7824 31.043 50.6038 31.2594C50.4901 31.3981 50.3747 31.5361 50.2589 31.6742C49.8062 32.2153 49.3513 32.759 48.9822 33.3647C48.6186 33.9354 48.6492 34.4587 49.0149 34.8357C50.35 35.9912 51.3395 37.5047 51.871 39.204L53.5585 44.6001C53.826 45.4553 53.1986 46.3282 52.3165 46.3282H41.11Z" fill="#1C92E0"/>
</g>
<defs>
<filter id="filter0_i_2822_396132" x="39.8057" y="9.61328" width="13.7627" height="36.5762" filterUnits="userSpaceOnUse" color-interpolation-filters="sRGB">
<feFlood flood-opacity="0" result="BackgroundImageFix"/>
<feBlend mode="normal" in="SourceGraphic" in2="BackgroundImageFix" result="shape"/>
<feColorMatrix in="SourceAlpha" type="matrix" values="0 0 0 0 0 0 0 0 0 0 0 0 0 0 0 0 0 0 127 0" result="hardAlpha"/>
<feOffset dx="-2.05982"/>
<feComposite in2="hardAlpha" operator="arithmetic" k2="-1" k3="1"/>
<feColorMatrix type="matrix" values="0 0 0 0 0 0 0 0 0 0 0 0 0 0 0 0 0 0 0.18 0"/>
<feBlend mode="normal" in2="shape" result="effect1_innerShadow_2822_396132"/>
</filter>
<filter id="filter1_di_2822_396132" x="32.9396" y="0.000797272" width="33.0404" height="55.9398" filterUnits="userSpaceOnUse" color-interpolation-filters="sRGB">
<feFlood flood-opacity="0" result="BackgroundImageFix"/>
<feColorMatrix in="SourceAlpha" type="matrix" values="0 0 0 0 0 0 0 0 0 0 0 0 0 0 0 0 0 0 127 0" result="hardAlpha"/>
<feOffset dx="2.74642"/>
<feGaussianBlur stdDeviation="4.80624"/>
<feComposite in2="hardAlpha" operator="out"/>
<feColorMatrix type="matrix" values="0 0 0 0 1 0 0 0 0 1 0 0 0 0 1 0 0 0 0.5 0"/>
<feBlend mode="normal" in2="BackgroundImageFix" result="effect1_dropShadow_2822_396132"/>
<feBlend mode="normal" in="SourceGraphic" in2="effect1_dropShadow_2822_396132" result="shape"/>
<feColorMatrix in="SourceAlpha" type="matrix" values="0 0 0 0 0 0 0 0 0 0 0 0 0 0 0 0 0 0 127 0" result="hardAlpha"/>
<feOffset dx="-2.05982"/>
<feComposite in2="hardAlpha" operator="arithmetic" k2="-1" k3="1"/>
<feColorMatrix type="matrix" values="0 0 0 0 0 0 0 0 0 0 0 0 0 0 0 0 0 0 0.18 0"/>
<feBlend mode="normal" in2="shape" result="effect2_innerShadow_2822_396132"/>
</filter>
</defs>
</svg>
