<svg width="87" height="69" viewBox="0 0 87 69" fill="none" xmlns="http://www.w3.org/2000/svg">
<path d="M24.6981 44.056C26.1233 42.3698 27.6654 40.7758 28.9739 38.9975C33.7428 32.5164 37.4508 25.9529 41.3916 18.9023C43.3664 15.3691 45.284 11.8032 47.1394 8.20584C48.1245 6.29582 49.0907 4.37109 49.9107 2.38461C50.0748 1.98711 50.5009 1.11003 50.0709 1.10449C49.4394 1.09634 49.1251 1.94191 48.6593 2.36846C47.2159 3.69021 46.2755 4.56573 44.9259 6.04892C42.1669 9.08095 39.9059 12.4408 37.9353 16.0351C35.0178 21.3565 32.637 26.9594 30.3792 32.584C28.2503 37.8874 26.3844 43.3493 23.7122 48.4183C19.8713 55.7045 13.8609 63.7776 6.01284 67.0956C4.96981 67.5365 2.89853 68.2542 1.71439 67.6864C0.858299 67.2759 1.12518 65.8294 1.20893 65.1385C2.12173 57.6087 5.82828 51.0246 10.7338 45.3603C19.6218 35.0975 30.135 26.5536 42.9218 21.7072C44.2974 21.1858 48.8348 19.2526 50.6459 20.2946C52.9942 21.6455 48.3025 29.5043 47.8119 30.4997C45.5284 35.1322 42.9947 39.6389 40.516 44.168C39.8421 45.3993 38.1911 47.6939 37.8224 49.2272C37.6304 50.0252 39.062 48.1513 39.6862 47.6184C41.6762 45.9196 43.7532 44.3179 45.8066 42.6976C47.682 41.2178 49.5428 39.6761 51.504 38.3079C52.327 37.7337 52.4726 37.7527 52.1836 38.6402C52.0977 38.9039 51.2052 41.5179 51.554 41.3898C53.556 40.6545 55.1911 38.5055 56.6377 37.0952C61.9001 31.9645 67.1916 26.8619 72.3859 21.662C74.2925 19.7534 76.1784 17.8242 78.066 15.8968C80.2688 13.6475 82.2084 11.077 84.7629 9.23685C87.1653 7.50631 82.1845 14.594 80.5041 17.0317C76.3979 22.9889 72.0029 28.7324 67.615 34.4817C66.2932 36.2135 63.7088 38.9682 63.182 41.1587" stroke="#010927" stroke-width="2.20726" stroke-linecap="round" stroke-linejoin="round"/>
</svg>
