<svg width="24" height="24" viewBox="0 0 24 24" fill="none" xmlns="http://www.w3.org/2000/svg">
<path fill-rule="evenodd" clip-rule="evenodd" d="M9.57872 9.13938C9.16852 8.78662 8.84595 8.33481 8.64814 7.82106C8.50642 7.45298 8.42873 7.0531 8.42873 6.63508C8.42873 4.81167 9.90691 3.3335 11.7303 3.3335C13.5537 3.3335 15.0319 4.81167 15.0319 6.63508C15.0319 7.09612 14.9374 7.53509 14.7667 7.93368C14.5829 8.36293 14.3107 8.74534 13.9731 9.05805L15.651 10.2424V12.4129H14.0083C14.0619 13.0925 14.3738 13.7724 14.828 14.4129C15.0462 14.7205 15.2973 15.019 15.5683 15.304C16.4548 16.236 17.5213 16.9877 18.2295 17.3924L18.3335 17.4518V20.6668H5.3335V17.4518L5.43747 17.3924C6.14573 16.9877 7.21222 16.236 8.09866 15.304C8.36969 15.019 8.62074 14.7205 8.83895 14.4129C9.29322 13.7724 9.60513 13.0925 9.65864 12.4129H8.01604V10.2424L9.57872 9.13938Z" stroke="#9DA1A3" stroke-width="1.5" stroke-linejoin="round"/>
</svg>
