<svg width="24" height="24" viewBox="0 0 24 24" fill="none" xmlns="http://www.w3.org/2000/svg">
<path d="M5.28613 4.75H10.1426C10.2847 4.75 10.421 4.80676 10.5215 4.90723C10.6219 5.00769 10.6787 5.14409 10.6787 5.28613V10.1426C10.6787 10.2847 10.6219 10.421 10.5215 10.5215C10.421 10.6219 10.2847 10.6787 10.1426 10.6787H5.28613C5.14409 10.6787 5.00769 10.6219 4.90723 10.5215C4.80676 10.421 4.75 10.2847 4.75 10.1426V5.28613C4.75 5.14405 4.80676 5.00769 4.90723 4.90723C5.00769 4.80676 5.14405 4.75 5.28613 4.75Z" stroke="white" stroke-opacity="0.6" stroke-width="1.5"/>
<path d="M13.8584 4.75H18.7148C18.8569 4.75 18.9933 4.80676 19.0938 4.90723C19.1942 5.00769 19.251 5.14409 19.251 5.28613V10.1426C19.251 10.2847 19.1942 10.421 19.0938 10.5215C18.9933 10.6219 18.8569 10.6787 18.7148 10.6787H13.8584C13.7164 10.6787 13.58 10.6219 13.4795 10.5215C13.379 10.421 13.3223 10.2847 13.3223 10.1426V5.28613C13.3223 5.14405 13.379 5.00769 13.4795 4.90723C13.58 4.80676 13.7163 4.75 13.8584 4.75Z" stroke="white" stroke-opacity="0.6" stroke-width="1.5"/>
<path d="M5.28613 13.3213H10.1426C10.2847 13.3213 10.421 13.378 10.5215 13.4785C10.6219 13.579 10.6787 13.7154 10.6787 13.8574V18.7139C10.6787 18.8559 10.6219 18.9923 10.5215 19.0928C10.421 19.1932 10.2847 19.25 10.1426 19.25H5.28613C5.14409 19.25 5.00769 19.1932 4.90723 19.0928C4.80676 18.9923 4.75 18.8559 4.75 18.7139V13.8574C4.75 13.7153 4.80676 13.579 4.90723 13.4785C5.00769 13.378 5.14405 13.3213 5.28613 13.3213Z" stroke="white" stroke-opacity="0.6" stroke-width="1.5"/>
<path d="M13.8584 13.3213H18.7148C18.8569 13.3213 18.9933 13.378 19.0938 13.4785C19.1942 13.579 19.251 13.7154 19.251 13.8574V18.7139C19.251 18.8559 19.1942 18.9923 19.0938 19.0928C18.9933 19.1932 18.8569 19.25 18.7148 19.25H13.8584C13.7164 19.25 13.58 19.1932 13.4795 19.0928C13.379 18.9923 13.3223 18.8559 13.3223 18.7139V13.8574C13.3223 13.7153 13.379 13.579 13.4795 13.4785C13.58 13.378 13.7163 13.3213 13.8584 13.3213Z" stroke="white" stroke-opacity="0.6" stroke-width="1.5"/>
</svg>
