<svg width="152" height="152" viewBox="0 0 152 152" fill="none" xmlns="http://www.w3.org/2000/svg">
<g opacity="0.2" filter="url(#filter0_f_1177_332460)">
<path d="M76 50C61.6638 50 50 61.6638 50 76C50 90.3363 61.6638 102 76 102C90.3363 102 102 90.3363 102 76C102 61.6638 90.3363 50 76 50Z" fill="#E0B531"/>
</g>
<path d="M76 50C61.6638 50 50 61.6638 50 76C50 90.3363 61.6638 102 76 102C90.3363 102 102 90.3363 102 76C102 61.6638 90.3363 50 76 50Z" fill="#F7F9FA"/>
<path d="M76 50C61.6637 50 50 61.6637 50 76C50 90.3363 61.6637 102 76 102C90.3363 102 102 90.3363 102 76C102 61.6637 90.3363 50 76 50Z" fill="#E0B531"/>
<path d="M83.3331 84.8H82.4787V82.0207C82.4797 81.0665 82.2441 80.1269 81.793 79.2861C81.3419 78.4453 80.6893 77.7295 79.8937 77.2027L78.0787 76L79.8937 74.7973C80.6893 74.2705 81.3419 73.5547 81.793 72.7139C82.2441 71.8731 82.4797 70.9335 82.4787 69.9793V67.2H83.3331C83.6248 67.2 83.9046 67.0841 84.1109 66.8778C84.3172 66.6715 84.4331 66.3917 84.4331 66.1C84.4331 65.8083 84.3172 65.5285 84.1109 65.3222C83.9046 65.1159 83.6248 65 83.3331 65H68.6664C68.3747 65 68.0949 65.1159 67.8886 65.3222C67.6823 65.5285 67.5664 65.8083 67.5664 66.1C67.5664 66.3917 67.6823 66.6715 67.8886 66.8778C68.0949 67.0841 68.3747 67.2 68.6664 67.2H69.6967V69.9793C69.6951 70.9336 69.9304 71.8734 70.3816 72.7143C70.8328 73.5553 71.4857 74.271 72.2817 74.7973L74.0967 76L72.2817 77.2027C71.4891 77.7311 70.8398 78.4478 70.3919 79.2885C69.944 80.1293 69.7114 81.068 69.7151 82.0207V84.8H68.6664C68.3747 84.8 68.0949 84.9159 67.8886 85.1222C67.6823 85.3285 67.5664 85.6083 67.5664 85.9C67.5664 86.1917 67.6823 86.4715 67.8886 86.6778C68.0949 86.8841 68.3747 87 68.6664 87H83.3331C83.6248 87 83.9046 86.8841 84.1109 86.6778C84.3172 86.4715 84.4331 86.1917 84.4331 85.9C84.4331 85.6083 84.3172 85.3285 84.1109 85.1222C83.9046 84.9159 83.6248 84.8 83.3331 84.8ZM71.8967 82.0207C71.8961 81.4299 72.0418 80.8481 72.3208 80.3273C72.5997 79.8065 73.0033 79.3629 73.4954 79.036L76.0877 77.32L78.6764 79.036C79.169 79.3627 79.5731 79.8062 79.8527 80.327C80.1322 80.8477 80.2786 81.4296 80.2787 82.0207V84.8H71.8967V82.0207Z" fill="#F7F9FA"/>
<defs>
<filter id="filter0_f_1177_332460" x="0" y="0" width="152" height="152" filterUnits="userSpaceOnUse" color-interpolation-filters="sRGB">
<feFlood flood-opacity="0" result="BackgroundImageFix"/>
<feBlend mode="normal" in="SourceGraphic" in2="BackgroundImageFix" result="shape"/>
<feGaussianBlur stdDeviation="25" result="effect1_foregroundBlur_1177_332460"/>
</filter>
</defs>
</svg>
