<svg width="21" height="20" viewBox="0 0 21 20" fill="none" xmlns="http://www.w3.org/2000/svg">
<path d="M9.95001 0.324496C10.1745 -0.108114 10.7933 -0.108115 11.0178 0.324495L13.8858 5.85143C13.973 6.01955 14.1344 6.13675 14.3212 6.16777L20.4639 7.18747C20.9447 7.26728 21.1359 7.85583 20.7939 8.20301L16.4237 12.6385C16.2908 12.7735 16.2291 12.9631 16.2574 13.1504L17.1858 19.3075C17.2585 19.7895 16.7578 20.1532 16.3219 19.9352L10.753 17.1495C10.5836 17.0648 10.3842 17.0648 10.2148 17.1495L4.64593 19.9352C4.21003 20.1532 3.70938 19.7895 3.78205 19.3075L4.71046 13.1504C4.7387 12.9631 4.67708 12.7735 4.54415 12.6385L0.173975 8.20301C-0.168092 7.85583 0.0231386 7.26728 0.503945 7.18747L6.64663 6.16777C6.83347 6.13675 6.99479 6.01955 7.08203 5.85143L9.95001 0.324496Z" fill="#13181C"/>
<path d="M10.3952 0.55559C10.4326 0.483487 10.5359 0.483489 10.5733 0.55559L13.4409 6.08211C13.6007 6.39024 13.8963 6.60573 14.2388 6.66267L20.3821 7.68182C20.462 7.69527 20.4938 7.79338 20.4369 7.85119L16.0666 12.2871C15.823 12.5344 15.7104 12.8818 15.7621 13.225L16.6902 19.382C16.7023 19.4623 16.6189 19.523 16.5463 19.4868L10.9777 16.7015C10.6672 16.5461 10.3013 16.5462 9.99082 16.7015L4.42122 19.4868C4.34864 19.5228 4.26521 19.4622 4.27731 19.382L5.20639 13.225C5.25809 12.8817 5.14457 12.5344 4.90094 12.2871L0.530625 7.85119C0.473905 7.7933 0.506394 7.69511 0.586428 7.68182L6.72875 6.66267C7.0713 6.60581 7.36671 6.39032 7.52665 6.08211L10.3952 0.55559Z" stroke="#F7F9FA" stroke-opacity="0.1"/>
</svg>
