<svg width="13" height="12" viewBox="0 0 13 12" fill="none" xmlns="http://www.w3.org/2000/svg">
<path d="M6.04876 0.149285C6.15219 -0.0500396 6.43732 -0.0500392 6.54075 0.149285L8.32824 3.594C8.36844 3.67146 8.44277 3.72546 8.52885 3.73975L12.3573 4.37529C12.5789 4.41206 12.667 4.68324 12.5094 4.8432L9.78562 7.60769C9.72438 7.66985 9.69598 7.75723 9.709 7.84352L10.2876 11.681C10.3211 11.9031 10.0904 12.0707 9.8896 11.9702L6.41874 10.234C6.34069 10.195 6.24881 10.195 6.17077 10.234L2.6999 11.9702C2.49906 12.0707 2.26839 11.9031 2.30187 11.681L2.88051 7.84352C2.89352 7.75723 2.86513 7.66985 2.80388 7.60769L0.0801288 4.8432C-0.0774781 4.68323 0.0106315 4.41206 0.232163 4.37529L4.06065 3.73975C4.14674 3.72546 4.22107 3.67146 4.26126 3.594L6.04876 0.149285Z" fill="#E0B531"/>
</svg>
